<svg width="180" height="32" viewBox="0 0 180 32" fill="none" xmlns="http://www.w3.org/2000/svg">
  <!-- Rocket icon -->
  <path d="M8 24l-2-2c4-6 10-12 18-14-2 8-8 14-14 18l-2-2zm4-4a2 2 0 100-4 2 2 0 000 4z" fill="#060A1A" opacity="0.9"/>
  <path d="M6 18s-2 0-4 2c0 0 0 4 2 6 2-2 2-4 2-4" fill="#060A1A" opacity="0.5"/>
  <path d="M14 26s0 2 2 4c0 0 4 0 6-2-2-2-4-2-4-2" fill="#060A1A" opacity="0.5"/>
  <!-- Text -->
  <text x="30" y="22" font-family="system-ui, -apple-system, sans-serif" font-size="18" font-weight="600" fill="#060A1A" letter-spacing="0.02em">OpenSeller</text>
</svg>
